# xmcd CD database file
#
# Track frame offsets:
#	150
#	28367
#	56270
#	95382
#	108960
#	139892
#	167985
#	184145
#
# Disc length: 2798 seconds
#
# Revision: 1
# Processed by: cddbd v1.5.1PL2 Copyright (c) Steve Scherf et al.
# Submitted via: CDex 1.51
#
DISCID=6b0aec08
DTITLE=Peter Nordahl trio - A brand new silver dollar
DYEAR=2005
DGENRE=Jazz
TTITLE0=A brand new silver dollar
TTITLE1=Send in the clowns
TTITLE2=What love - Is this thing called
TTITLE3=Johanna
TTITLE4=Memories of tomorrow
TTITLE5=The art of flying
TTITLE6=Mo' better blues
TTITLE7=Farewell farewell
EXTD=YEAR: 2005
EXTT0=
EXTT1=
EXTT2=
EXTT3=
EXTT4=
EXTT5=
EXTT6=
EXTT7=
PLAYORDER=
